HIERARCHY
ROOT Hips
{
	OFFSET 0.000000 100.481300 0.000000
	CHANNELS 6 Xposition Yposition Zposition Xrotation Yrotation Zrotation 
	JOINT Spine
	{
		OFFSET -0.279200 12.230698 -2.892100
		CHANNELS 3 Xrotation Yrotation Zrotation
		JOINT Spine1
		{
			OFFSET -0.232667 10.192268 -1.242267
			CHANNELS 3 Xrotation Yrotation Zrotation
			JOINT Spine1_split
			{
				OFFSET -0.232667 10.192268 -1.242267
				CHANNELS 3 Xrotation Yrotation Zrotation
				JOINT Spine2
				{
					OFFSET -0.232667 10.192268 -1.242267
					CHANNELS 3 Xrotation Yrotation Zrotation
					JOINT Neck
					{
						OFFSET -0.418800 17.814194 8.416900
						CHANNELS 3 Xrotation Yrotation Zrotation
						JOINT Head
						{
							OFFSET 0.000000 7.031097 3.806800
							CHANNELS 3 Xrotation Yrotation Zrotation
							JOINT HeadTop_End
							{
								OFFSET 0.000000 24.646606 12.978600
								CHANNELS 3 Xrotation Yrotation Zrotation
								End Site
								{
									OFFSET 0.000000 0.000000 0.000000
								}
							}
						}
					}
					JOINT LeftShoulder
					{
						OFFSET 8.476499 7.247704 -3.868750
						CHANNELS 3 Xrotation Yrotation Zrotation
						JOINT LeftShoulder_split
						{
							OFFSET 8.476499 7.247704 -3.868750
							CHANNELS 3 Xrotation Yrotation Zrotation
							JOINT LeftArm
							{
								OFFSET 9.308998 -2.777710 0.208600
								CHANNELS 3 Xrotation Yrotation Zrotation
								JOINT LeftForeArm
								{
									OFFSET 29.972298 0.000000 0.000000
									CHANNELS 3 Xrotation Yrotation Zrotation
									JOINT LeftHand
									{
										OFFSET 26.026505 0.000000 0.000000
										CHANNELS 3 Xrotation Yrotation Zrotation
										JOINT LeftHandThumb1
										{
											OFFSET 12.240501 -7.147949 9.207150
											CHANNELS 3 Xrotation Yrotation Zrotation
											JOINT LeftHandThumb2
											{
												OFFSET 4.138618 -2.389435 2.389433
												CHANNELS 3 Xrotation Yrotation Zrotation
												JOINT LeftHandThumb3
												{
													OFFSET 2.726913 -1.574387 1.574386
													CHANNELS 3 Xrotation Yrotation Zrotation
													JOINT LeftHandThumb4
													{
														OFFSET 3.941010 -2.275345 2.275342
														CHANNELS 3 Xrotation Yrotation Zrotation
														End Site
														{
															OFFSET 0.000000 0.000000 0.000000
														}
													}
												}
											}
										}
										JOINT LeftHandIndex1
										{
											OFFSET 24.424698 -1.985611 5.953459
											CHANNELS 3 Xrotation Yrotation Zrotation
											JOINT LeftHandIndex2
											{
												OFFSET 6.426697 0.000000 0.000000
												CHANNELS 3 Xrotation Yrotation Zrotation
												JOINT LeftHandIndex3
												{
													OFFSET 5.337898 0.000000 0.000000
													CHANNELS 3 Xrotation Yrotation Zrotation
													JOINT LeftHandIndex4
													{
														OFFSET 4.409401 0.000000 0.000000
														CHANNELS 3 Xrotation Yrotation Zrotation
														End Site
														{
															OFFSET 0.000000 0.000000 0.000000
														}
													}
												}
											}
										}
										JOINT LeftHandMiddle1
										{
											OFFSET 23.810104 0.000000 0.000000
											CHANNELS 3 Xrotation Yrotation Zrotation
											JOINT LeftHandMiddle2
											{
												OFFSET 7.176498 0.000000 0.000000
												CHANNELS 3 Xrotation Yrotation Zrotation
												JOINT LeftHandMiddle3
												{
													OFFSET 6.774902 0.000000 0.000000
													CHANNELS 3 Xrotation Yrotation Zrotation
													JOINT LeftHandMiddle4
													{
														OFFSET 5.403328 0.000000 0.000000
														CHANNELS 3 Xrotation Yrotation Zrotation
														End Site
														{
															OFFSET 0.000000 0.000000 0.000000
														}
													}
												}
											}
										}
										JOINT LeftHandRing1
										{
											OFFSET 22.908401 -0.839279 -6.020567
											CHANNELS 3 Xrotation Yrotation Zrotation
											JOINT LeftHandRing2
											{
												OFFSET 6.337502 0.000000 0.000000
												CHANNELS 3 Xrotation Yrotation Zrotation
												JOINT LeftHandRing3
												{
													OFFSET 5.779297 0.000000 0.000000
													CHANNELS 3 Xrotation Yrotation Zrotation
													JOINT LeftHandRing4
													{
														OFFSET 4.965698 0.000000 0.000000
														CHANNELS 3 Xrotation Yrotation Zrotation
														End Site
														{
															OFFSET 0.000000 0.000000 0.000000
														}
													}
												}
											}
										}
										JOINT LeftHandPinky1
										{
											OFFSET 20.037003 -1.530319 -10.950146
											CHANNELS 3 Xrotation Yrotation Zrotation
											JOINT LeftHandPinky2
											{
												OFFSET 5.254700 0.000000 0.000000
												CHANNELS 3 Xrotation Yrotation Zrotation
												JOINT LeftHandPinky3
												{
													OFFSET 4.810204 0.000000 0.000000
													CHANNELS 3 Xrotation Yrotation Zrotation
													JOINT LeftHandPinky4
													{
														OFFSET 3.647202 0.000000 0.000000
														CHANNELS 3 Xrotation Yrotation Zrotation
														End Site
														{
															OFFSET 0.000000 0.000000 0.000000
														}
													}
												}
											}
										}
									}
								}
							}
						}
					}
					JOINT RightShoulder
					{
						OFFSET -7.570500 7.247704 -3.868750
						CHANNELS 3 Xrotation Yrotation Zrotation
						JOINT RightShoulder_split
						{
							OFFSET -7.570500 7.247704 -3.868750
							CHANNELS 3 Xrotation Yrotation Zrotation
							JOINT RightArm
							{
								OFFSET -9.308998 -2.777710 0.208500
								CHANNELS 3 Xrotation Yrotation Zrotation
								JOINT RightForeArm
								{
									OFFSET -29.972300 0.000000 0.000000
									CHANNELS 3 Xrotation Yrotation Zrotation
									JOINT RightHand
									{
										OFFSET -26.026505 0.000000 0.000000
										CHANNELS 3 Xrotation Yrotation Zrotation
										JOINT RightHandThumb1
										{
											OFFSET -12.240601 -7.148026 9.207092
											CHANNELS 3 Xrotation Yrotation Zrotation
											JOINT RightHandThumb2
											{
												OFFSET -4.138618 -2.389435 2.389433
												CHANNELS 3 Xrotation Yrotation Zrotation
												JOINT RightHandThumb3
												{
													OFFSET -2.726974 -1.574417 1.574421
													CHANNELS 3 Xrotation Yrotation Zrotation
													JOINT RightHandThumb4
													{
														OFFSET -3.941010 -2.275345 2.275343
														CHANNELS 3 Xrotation Yrotation Zrotation
														End Site
														{
															OFFSET 0.000000 0.000000 0.000000
														}
													}
												}
											}
										}
										JOINT RightHandIndex1
										{
											OFFSET -24.424698 -1.985657 5.953444
											CHANNELS 3 Xrotation Yrotation Zrotation
											JOINT RightHandIndex2
											{
												OFFSET -6.426697 0.000000 0.000000
												CHANNELS 3 Xrotation Yrotation Zrotation
												JOINT RightHandIndex3
												{
													OFFSET -5.337898 0.000000 0.000000
													CHANNELS 3 Xrotation Yrotation Zrotation
													JOINT RightHandIndex4
													{
														OFFSET -4.409401 0.000000 0.000000
														CHANNELS 3 Xrotation Yrotation Zrotation
														End Site
														{
															OFFSET 0.000000 0.000000 0.000000
														}
													}
												}
											}
										}
										JOINT RightHandMiddle1
										{
											OFFSET -23.810097 0.000000 0.000000
											CHANNELS 3 Xrotation Yrotation Zrotation
											JOINT RightHandMiddle2
											{
												OFFSET -7.176498 0.000000 0.000000
												CHANNELS 3 Xrotation Yrotation Zrotation
												JOINT RightHandMiddle3
												{
													OFFSET -6.774902 0.000000 0.000000
													CHANNELS 3 Xrotation Yrotation Zrotation
													JOINT RightHandMiddle4
													{
														OFFSET -5.403328 0.000000 0.000000
														CHANNELS 3 Xrotation Yrotation Zrotation
														End Site
														{
															OFFSET 0.000000 0.000000 0.000000
														}
													}
												}
											}
										}
										JOINT RightHandRing1
										{
											OFFSET -22.908302 -0.839325 -6.020576
											CHANNELS 3 Xrotation Yrotation Zrotation
											JOINT RightHandRing2
											{
												OFFSET -6.337502 0.000000 0.000000
												CHANNELS 3 Xrotation Yrotation Zrotation
												JOINT RightHandRing3
												{
													OFFSET -5.779297 0.000000 0.000000
													CHANNELS 3 Xrotation Yrotation Zrotation
													JOINT RightHandRing4
													{
														OFFSET -4.965698 0.000000 0.000000
														CHANNELS 3 Xrotation Yrotation Zrotation
														End Site
														{
															OFFSET 0.000000 0.000000 0.000000
														}
													}
												}
											}
										}
										JOINT RightHandPinky1
										{
											OFFSET -20.037003 -1.530334 -10.950259
											CHANNELS 3 Xrotation Yrotation Zrotation
											JOINT RightHandPinky2
											{
												OFFSET -5.254700 0.000000 0.000000
												CHANNELS 3 Xrotation Yrotation Zrotation
												JOINT RightHandPinky3
												{
													OFFSET -4.810204 0.000000 0.000000
													CHANNELS 3 Xrotation Yrotation Zrotation
													JOINT RightHandPinky4
													{
														OFFSET -3.647202 0.000000 0.000000
														CHANNELS 3 Xrotation Yrotation Zrotation
														End Site
														{
															OFFSET 0.000000 0.000000 0.000000
														}
													}
												}
											}
										}
									}
								}
							}
						}
					}
				}
			}
		}
	}
	JOINT LeftUpLeg
	{
		OFFSET 15.427100 -6.655098 0.678600
		CHANNELS 3 Xrotation Yrotation Zrotation
		JOINT LeftLeg
		{
			OFFSET 4.081073 -39.591068 13.024000
			CHANNELS 3 Xrotation Yrotation Zrotation
			JOINT LeftFoot
			{
				OFFSET -4.081074 -37.707932 -15.979700
				CHANNELS 3 Xrotation Yrotation Zrotation
				JOINT LeftToeBase
				{
					OFFSET 5.346399 -15.068900 20.645000
					CHANNELS 3 Xrotation Yrotation Zrotation
					JOINT LeftToe_End
					{
						OFFSET 2.754700 0.931300 11.300900
						CHANNELS 3 Xrotation Yrotation Zrotation
						End Site
						{
							OFFSET 0.000000 0.000000 0.000000
						}
					}
				}
			}
		}
	}
	JOINT RightUpLeg
	{
		OFFSET -15.569500 -6.655098 0.678600
		CHANNELS 3 Xrotation Yrotation Zrotation
		JOINT RightLeg
		{
			OFFSET -4.081825 -39.591045 13.023800
			CHANNELS 3 Xrotation Yrotation Zrotation
			JOINT RightFoot
			{
				OFFSET 4.081824 -37.707954 -15.979600
				CHANNELS 3 Xrotation Yrotation Zrotation
				JOINT RightToeBase
				{
					OFFSET -5.346400 -15.068900 20.645000
					CHANNELS 3 Xrotation Yrotation Zrotation
					JOINT RightToe_End
					{
						OFFSET -2.754700 0.931300 11.300900
						CHANNELS 3 Xrotation Yrotation Zrotation
						End Site
						{
							OFFSET 0.000000 0.000000 0.000000
						}
					}
				}
			}
		}
	}
}
MOTION
Frames: 4
Frame Time: 0.016667
0.289058 78.876213 -0.157205 3.037465 -58.355074 6.232968 11.190421 0.276971 -2.458522 8.434588 0.027703 -5.592322 0.000000 0.000000 0.000000 8.457057 0.027854 -5.591866 -21.555654 25.063376 12.062569 -0.294040 25.465751 -3.208977 0.000000 0.000000 -0.000001 -6.221673 -11.503862 -4.023827 0.000000 0.000000 0.000000 -23.062178 9.568549 -36.639607 0.046103 -43.169114 -0.011164 22.743762 -5.685859 15.979292 -1.064236 -7.954897 8.490084 2.373393 19.986073 -2.038340 0.808197 1.237783 2.631747 -0.000000 -0.000000 -0.000001 13.340878 -1.006669 10.682261 -0.167590 0.303374 -31.105617 -0.143398 0.303646 -32.256275 -0.000000 -0.000000 -0.000001 8.495446 -0.329576 -0.915308 0.231516 0.661185 -29.901854 0.444098 0.213447 -44.357017 0.000001 -0.000001 -0.000000 6.111751 3.150906 -16.210964 0.047062 0.322394 -30.125475 0.408800 0.818959 -42.140665 0.000002 -0.000001 -0.000002 -5.636018 7.709845 -13.878621 0.224401 0.276610 -46.588369 0.261234 0.249366 -46.286840 -0.000002 0.000002 -0.000003 -5.488240 10.658259 2.466538 0.000000 0.000000 0.000000 -41.473803 -26.755574 30.079074 24.955438 111.862974 -23.308471 -8.702497 12.423032 -9.801966 0.265000 10.061126 -10.888486 1.383817 -17.412881 3.016288 3.342335 -13.253726 -8.262748 -0.000003 0.000002 -0.000001 19.443593 11.174447 -13.340205 -0.118650 -0.322722 18.035599 -0.089912 -0.286603 23.256591 -0.000001 -0.000001 -0.000001 4.320481 2.436949 -4.811725 0.349121 -0.461246 26.890318 0.467477 0.154065 39.044838 0.000000 0.000000 0.000000 -7.005648 -10.695116 5.719837 0.111866 -0.089221 26.155894 0.451295 -0.473553 33.265057 0.000001 -0.000001 -0.000001 -19.433519 -20.238187 5.987880 0.223770 -0.085827 36.844561 0.260789 -0.047495 36.471697 -0.000001 -0.000002 0.000000 -34.682417 8.729305 27.684336 40.318313 -8.743026 -10.519667 -7.477122 -1.700985 -10.845888 -0.354880 1.238055 0.775505 -0.000000 -0.000001 -0.000000 -31.023436 -7.189573 -29.208375 46.890270 5.288285 -6.185772 -19.302068 0.930658 23.072108 -0.351793 -0.997036 -0.771245 -0.000000 0.000000 -0.000000 
0.267748 78.771255 -0.098829 2.497271 -58.349466 5.706097 11.180175 0.262493 -2.442829 8.413343 0.007704 -5.542170 0.000000 0.000000 0.000000 8.435802 0.007776 -5.541681 -21.652145 24.945114 12.088953 0.094815 25.159311 -2.954652 -0.000000 -0.000001 0.000000 -6.261267 -11.506431 -4.015208 0.000000 0.000000 0.000000 -22.811109 9.698552 -36.516609 0.794414 -43.624107 0.229693 22.724104 -5.775174 15.786085 -1.337188 -8.592338 8.462108 2.372312 19.986658 -2.038312 0.808504 1.237326 2.632231 0.000000 0.000001 0.000000 13.509666 -1.097522 9.424768 -0.159044 0.305426 -31.104053 -0.127815 0.288306 -32.095964 -0.000000 0.000000 -0.000002 8.477591 -0.230321 -1.799017 0.234813 0.664033 -29.734344 0.440519 0.219781 -44.354036 -0.000002 -0.000001 -0.000001 6.088929 3.437387 -16.790623 0.051257 0.330268 -29.912093 0.415126 0.821408 -42.143281 0.000002 -0.000000 -0.000002 -5.699344 8.273528 -13.976721 0.209842 0.283972 -46.588495 0.281009 0.247117 -46.027067 -0.000000 0.000000 0.000000 -5.513959 10.443163 2.326543 0.000000 0.000000 0.000000 -40.253494 -26.263783 30.874286 22.710840 111.299456 -21.321762 -8.758537 12.223529 -9.454590 -0.163833 10.339061 -11.464022 1.370544 -17.420138 3.013302 3.335259 -13.256180 -8.261517 -0.000002 0.000003 -0.000001 19.534083 10.739037 -14.196810 -0.102107 -0.326670 17.430841 -0.085096 -0.287732 22.639646 -0.000000 -0.000002 -0.000002 4.417752 2.218594 -5.481772 0.352848 -0.461291 26.461886 0.458114 0.156527 38.606336 -0.000000 0.000000 0.000001 -6.982942 -10.920048 5.218389 0.085180 -0.090076 25.880161 0.452418 -0.467642 32.988031 0.000002 -0.000000 -0.000000 -19.427684 -20.205253 5.922302 0.228601 -0.095112 36.799543 0.257336 -0.056635 36.449223 -0.000001 0.000000 -0.000001 -34.509637 8.655175 27.731565 40.600649 -8.826892 -10.443169 -7.655679 -1.646440 -10.853486 -0.359482 1.244377 0.765416 -0.000000 0.000000 -0.000000 -31.004332 -7.646932 -29.589425 46.985486 5.873032 -5.812774 -19.338663 1.084344 22.601516 -0.397132 -0.990696 -0.749353 0.000000 0.000001 -0.000000 
0.166951 78.508919 0.091374 1.774011 -58.292147 4.987372 11.141350 0.232947 -2.369986 8.334207 -0.045754 -5.404248 0.000000 0.000000 0.000000 8.356677 -0.045671 -5.403787 -21.836695 24.626044 12.153085 0.665323 24.715296 -2.781587 -0.000000 0.000000 -0.000001 -6.328841 -11.488483 -3.983640 0.000000 0.000000 0.000000 -22.131660 10.073054 -36.144029 2.769373 -44.886880 0.926388 22.664453 -6.014908 15.253918 -1.443754 -9.455555 7.932157 2.372321 19.986681 -2.038381 0.808459 1.237296 2.632263 -0.000000 0.000001 0.000001 13.845181 -1.532800 7.580821 -0.159331 0.304568 -30.882878 -0.127916 0.288142 -32.056882 -0.000001 -0.000001 -0.000001 8.524447 -0.343993 -3.219833 0.234612 0.663865 -29.653014 0.440525 0.219796 -44.354012 0.000001 0.000000 -0.000000 6.136557 3.595755 -17.915508 0.051085 0.329949 -29.853606 0.415461 0.821298 -42.230233 0.000000 -0.000000 -0.000002 -5.678624 8.863560 -14.718660 0.209867 0.283904 -46.588519 0.280892 0.247133 -45.993934 -0.000002 0.000002 -0.000002 -5.548076 9.866012 1.937129 0.000000 0.000000 0.000000 -37.030537 -24.874080 32.856919 15.981613 109.909191 -15.220749 -8.898757 11.688151 -8.523740 -1.286797 11.106080 -12.958748 1.370537 -17.420133 3.013326 3.335244 -13.256164 -8.261530 -0.000000 0.000000 -0.000002 19.732831 9.623679 -16.324690 -0.104585 -0.322140 15.920300 -0.092173 -0.285218 21.097346 -0.000001 0.000005 -0.000001 4.635099 1.638524 -7.128998 0.347181 -0.458693 25.403418 0.460877 0.154128 37.520896 0.000001 -0.000001 -0.000000 -6.943919 -11.513878 4.011800 0.085689 -0.087041 25.221614 0.446244 -0.473903 32.326363 -0.000004 -0.000001 0.000000 -19.419935 -20.160446 5.828232 0.228555 -0.095033 36.736534 0.257340 -0.056659 36.444353 -0.000003 0.000001 -0.000001 -34.326939 8.486671 27.857398 41.238220 -9.024540 -10.442187 -8.109297 -1.577347 -10.784472 -0.363922 1.244300 0.755369 -0.000000 0.000005 0.000000 -30.798501 -8.046858 -30.018449 47.285236 6.403318 -5.541990 -19.614466 1.125763 22.378541 -0.421252 -0.990371 -0.765173 -0.000000 0.000001 -0.000000 
0.000704 78.177704 0.377221 0.924041 -58.179053 4.127941 11.076420 0.190929 -2.253542 8.202126 -0.124049 -5.198299 0.000000 0.000000 0.000000 8.224618 -0.123943 -5.197832 -22.026528 24.153031 12.233263 1.675683 24.083957 -2.871051 -0.000000 0.000000 -0.000000 -6.417288 -11.419001 -3.918490 0.000000 0.000000 0.000000 -21.132127 10.674313 -35.524470 5.610350 -46.795491 2.096778 22.562471 -6.361020 14.453076 -1.492407 -10.414545 7.157426 2.372315 19.986681 -2.038308 0.808470 1.237304 2.632226 -0.000001 -0.000000 0.000001 14.236163 -2.165266 5.410903 -0.159328 0.304516 -30.877137 -0.127865 0.288238 -32.084438 0.000001 -0.000000 -0.000000 8.587909 -0.569235 -4.948587 0.234562 0.663855 -29.620218 0.439358 0.220337 -44.070580 0.000004 0.000000 0.000000 6.219786 3.684090 -19.350749 0.051106 0.329983 -29.860214 0.415834 0.821151 -42.343734 0.000001 0.000000 -0.000001 -5.600362 9.470228 -15.793803 0.209869 0.283959 -46.588539 0.281060 0.247130 -46.045932 -0.000001 0.000000 -0.000003 -5.599951 9.021876 1.345358 0.000000 0.000000 0.000000 -32.495110 -22.695858 35.348152 4.343930 108.342093 -4.332197 -9.075120 10.910052 -7.177479 -2.857459 12.259164 -15.019031 1.370560 -17.420177 3.013341 3.335198 -13.256166 -8.261574 -0.000000 0.000000 -0.000001 19.872217 8.134587 -19.053723 -0.107673 -0.316133 13.960261 -0.101260 -0.281474 19.092885 -0.000001 -0.000002 -0.000001 4.859954 0.812346 -9.209673 0.340105 -0.454430 24.055609 0.461395 0.148714 36.133852 -0.000001 0.000001 -0.000000 -6.928780 -12.352427 2.546292 0.086257 -0.083354 24.433233 0.438765 -0.481228 31.533532 0.000002 0.000001 -0.000000 -19.409234 -20.187451 5.864950 0.228620 -0.095084 36.763732 0.257335 -0.056710 36.551327 -0.000000 0.000001 0.000001 -34.126063 8.350054 28.076838 42.011677 -9.382473 -10.547560 -8.696172 -1.518791 -10.581329 -0.368349 1.244229 0.745295 -0.000000 0.000001 0.000000 -30.374138 -8.401099 -30.413774 47.652276 6.800384 -5.384447 -20.035166 1.081627 22.344546 -0.479863 -0.989095 -0.789584 -0.000000 0.000001 -0.000000 
